Coordinates
version=1
nRows=12
nColumns=34
inDegrees=yes

Units are S.I. units (second, meters, Newtons, ...)
If the header above contains a line with 'inDegrees', this indicates whether rotational values are in degrees (yes) or radians (no).

endheader
time	pelvis_tilt	pelvis_list	pelvis_rotation	pelvis_tx	pelvis_ty	pelvis_tz	hip_flexion_r	hip_adduction_r	hip_rotation_r	knee_angle_r	ankle_angle_r	subtalar_angle_r	mtp_angle_r	hip_flexion_l	hip_adduction_l	hip_rotation_l	knee_angle_l	ankle_angle_l	subtalar_angle_l	mtp_angle_l	lumbar_extension	lumbar_bending	lumbar_rotation	arm_flex_r	arm_add_r	arm_rot_r	elbow_flex_r	pro_sup_r	arm_flex_l	arm_add_l	arm_rot_l	elbow_flex_l	pro_sup_l
      5.03333330	    -13.85883253	      0.56385430	      1.78050816	      1.04180951	      1.11428068	     -0.09636283	     16.74290437	    -10.52281069	    -19.67259252	     11.36341743	      2.56054773	    -23.12040281	      0.00000000	     18.78660463	     -5.82919839	    -18.17127121	     14.75113136	      6.10455175	    -13.20745122	      0.00000000	     -4.68461016	     -0.55013311	     -4.61889257	     -2.09311236	    -15.70417708	      5.48730634	     30.66922150	     75.85869011	   -182.36917067	   -164.77800607	   -169.60621829	     31.77716573	     68.56209064
      5.05000000	    -13.39676805	      0.61176736	      1.56442325	      1.04853787	      1.11585097	     -0.09318784	     15.33183376	    -10.25550651	    -19.83630192	      9.99156360	      2.05823759	    -22.59551787	      0.00000000	     17.35155004	     -5.57191423	    -18.19391465	     13.52539692	      6.02206741	    -13.07979885	      0.00000000	     -3.69689150	     -0.59054526	     -4.28316471	     -4.06505905	    -15.34357688	      5.42198757	     29.83885796	     75.78065920	   -184.37543939	   -165.44759660	   -169.60800679	     31.52986614	     68.40879474
      5.06666670	    -12.61919937	      0.64153765	      1.44371421	      1.03902105	      1.11685955	     -0.09580091	     14.13006668	    -10.12110334	    -19.66971988	      9.17019900	      2.36113609	    -21.71921213	      0.00000000	     15.80541286	     -5.25181758	    -18.28967799	     12.11773350	      6.25398065	    -12.67794904	      0.00000000	     -3.70957029	     -0.57554718	     -3.94462759	     -4.89797733	    -14.85773441	      4.64205550	     28.44032875	     75.36589208	   -185.45137319	   -166.14050404	   -170.61711409	     31.22031891	     67.79672349
      5.08333330	    -12.48200709	      0.51229262	      1.42836115	      1.03122180	      1.11339366	     -0.09260658	     13.96412012	     -9.76999852	    -19.14342568	      8.55686624	      2.52336641	    -21.59851236	      0.00000000	     15.47111519	     -5.24830558	    -18.00114155	     11.29567940	      6.33630338	    -12.62825701	      0.00000000	     -3.44384603	     -0.49220254	     -3.83620356	     -5.35799167	    -14.54515535	      4.63086926	     28.09235504	     75.31189747	   -186.02221975	   -166.41658627	   -170.74773089	     31.08435903	     67.71202240
      5.10000000	    -11.81343348	      0.41233157	      1.49278967	      1.03809461	      1.12300776	     -0.08892402	     12.98766270	     -9.33374906	    -18.51026358	      7.82633226	      2.76362648	    -20.92229437	      0.00000000	     14.34967301	     -5.32965223	    -18.08823103	     10.25899364	      5.91488122	    -12.13052452	      0.00000000	     -3.62718831	     -0.62069421	     -3.66917718	     -5.75607628	    -13.45697893	      4.46725216	     25.84153977	     75.01456624	   -186.54359310	   -166.87242458	   -172.06485872	     29.90126265	     67.15958821
      5.11666670	    -11.25615447	      0.17093418	      1.86148174	      1.04489931	      1.11861172	     -0.09359959	     11.99491926	     -8.98540804	    -18.45399126	      7.31642894	      3.00547480	    -20.44447144	      0.00000000	     13.34102879	     -5.43792831	    -18.03678726	      9.42057766	      6.01635211	    -11.41902782	      0.00000000	     -3.37629688	     -0.45023921	     -3.79605267	     -6.72945083	    -12.71831982	      4.59879580	     24.16431914	     74.79124744	   -187.41089196	   -167.45058422	   -172.78816038	     28.76074667	     66.77668712
      5.13333330	    -10.60506021	      0.06138114	      2.24786197	      1.04382414	      1.12670873	     -0.09356801	     10.89861733	     -8.77524261	    -18.22304002	      6.74009038	      3.16043979	    -19.91094972	      0.00000000	     12.08687628	     -5.34581289	    -17.90242091	      8.23436581	      5.80281749	    -10.69336588	      0.00000000	     -3.35945209	     -0.47832102	     -4.19994405	     -7.44010137	    -11.83917502	      4.60347071	     22.63999019	     74.54646548	   -187.96903972	   -167.93449183	   -173.20378029	     26.98421559	     66.47679048
      5.15000000	     -9.92494292	     -0.00990265	      2.73262524	      1.04291857	      1.12765355	     -0.09434633	      9.71630760	     -8.65425225	    -18.37431446	      6.14389373	      3.04788788	    -19.63403913	      0.00000000	     10.82331631	     -5.18532554	    -17.75856016	      7.05353807	      5.55092542	     -9.99193078	      0.00000000	     -3.32387659	     -0.59547457	     -4.49022408	     -7.98667807	    -11.06226959	      4.49885021	     21.42090382	     74.32237360	   -188.27884973	   -168.22986933	   -173.26474560	     25.35005577	     66.30583733
      5.16666670	     -9.20999935	      0.01467536	      3.06199902	      1.04221170	      1.12899163	     -0.09428908	      8.59011650	     -8.63104099	    -18.46758635	      5.67193397	      2.86525538	    -19.45897598	      0.00000000	      9.60042851	     -4.98368478	    -17.74378674	      6.04727514	      5.33004200	     -9.34094333	      0.00000000	     -3.34610102	     -0.83045222	     -4.56553289	     -8.39296886	    -10.33665379	      4.28635383	     20.33556625	     74.05452252	   -188.28780202	   -168.61791372	   -173.16245973	     23.58590865	     66.15588074
      5.18333330	     -8.46975159	      0.09311528	      3.36688348	      1.04916431	      1.13304522	     -0.09892937	      7.27223009	     -8.71170718	    -18.84378186	      5.12887586	      2.48651745	    -19.10479778	      0.00000000	      8.23908663	     -4.70022166	    -17.80906057	      5.03001989	      4.93247474	     -8.59787007	      0.00000000	     -3.21396274	     -1.00267320	     -4.46964716	     -8.93147504	     -9.86414481	      3.92386009	     19.57044571	     73.77205347	   -188.41777915	   -169.03287785	   -172.99875642	     22.21092092	     66.03867027
      5.20000000	     -7.86692326	      0.22862365	      3.46323703	      1.04813504	      1.13134190	     -0.09819873	      6.12009158	     -8.79695284	    -18.98033531	      4.50352809	      2.25876940	    -18.75425745	      0.00000000	      6.98442412	     -4.36391072	    -17.90495412	      3.95401473	      4.57675099	     -8.14992023	      0.00000000	     -2.99588455	     -1.16262501	     -4.09360587	     -9.56497619	     -9.38507710	      3.28049580	     19.01304404	     73.43189891	   -188.76549075	   -169.46517193	   -173.04524193	     21.35782552	     65.90205622
      5.21666670	     -7.30825110	      0.41739272	      3.45173085	      1.04787763	      1.13438201	     -0.09875829	      5.10463630	     -8.95098613	    -19.05624104	      3.94808656	      2.14601144	    -18.45228496	      0.00000000	      5.76233617	     -3.99297954	    -18.01216266	      2.81676361	      4.21350073	     -7.66834984	      0.00000000	     -2.77439017	     -1.31766663	     -3.76978359	     -9.91838700	     -9.06717989	      2.52270168	     18.61370890	     73.14608400	   -189.08752134	   -169.90933915	   -173.42078040	     20.87681695	     65.76741478
